<svg xmlns="http://www.w3.org/2000/svg" viewBox="0 0 64 64" role="img" aria-label="Beni Obed favicon">
  <defs>
    <linearGradient id="beni-gradient" x1="10%" x2="90%" y1="5%" y2="95%">
      <stop offset="0%" stop-color="#ffd54f" />
      <stop offset="100%" stop-color="#ff8c00" />
    </linearGradient>
  </defs>
  <rect width="64" height="64" rx="18" fill="#171313" />
  <circle cx="32" cy="32" r="22" fill="url(#beni-gradient)" opacity="0.22" />
  <path d="M23 14h11.5c7.8 0 12.5 3.9 12.5 10.4 0 4.2-2.1 7.1-5.8 8.7 4.5 1.4 7 4.8 7 9.6 0 6.9-5 11.3-13.6 11.3H23V14Zm9.9 16.1c3.5 0 5.4-1.3 5.4-3.9 0-2.5-1.9-3.8-5.4-3.8h-2.8v7.7h2.8Zm1.5 15.4c3.8 0 5.9-1.5 5.9-4.4 0-2.8-2.1-4.3-5.9-4.3h-4.3v8.7h4.3Z" fill="#fff7ea" />
</svg>
